<?xml version="1.0" encoding="UTF-8"?>
<svg xmlns="http://www.w3.org/2000/svg" viewBox="-20 -20 40 40" role="img" aria-label="Pilot death (suit burst)">
  <defs>
    <style>
      .slot-secondary { fill: var(--slot-secondary, #ffffff); }
      .slot-stroke { stroke: var(--slot-stroke, #ffffff); }
      .stop-primary { stop-color: var(--slot-primary, #00f0ff); }
      .stop-dark { stop-color: #07121a; }
    </style>

    <!-- Suit metal -->
    <linearGradient id="suitMetal" x1="0" y1="0" x2="1" y2="1">
      <stop offset="0" class="stop-primary" stop-opacity="0.25"/>
      <stop offset="0.35" class="stop-dark" stop-opacity="1"/>
      <stop offset="1" stop-color="#020508" stop-opacity="1"/>
    </linearGradient>

    <!-- Big energy burst -->
    <radialGradient id="burstGlow" cx="52%" cy="48%" r="62%">
      <stop offset="0" class="stop-primary" stop-opacity="0.98"/>
      <stop offset="0.35" class="stop-primary" stop-opacity="0.7"/>
      <stop offset="0.7" class="stop-primary" stop-opacity="0.25"/>
      <stop offset="1" class="stop-primary" stop-opacity="0"/>
    </radialGradient>

    <!-- Hot core -->
    <radialGradient id="core" cx="50%" cy="50%" r="60%">
      <stop offset="0" class="stop-primary" stop-opacity="1"/>
      <stop offset="0.55" class="stop-primary" stop-opacity="0.7"/>
      <stop offset="1" class="stop-primary" stop-opacity="0"/>
    </radialGradient>

    <filter id="softGlow" x="-40%" y="-40%" width="180%" height="180%">
      <feGaussianBlur stdDeviation="0.8" result="b"/>
      <feMerge>
        <feMergeNode in="b"/>
        <feMergeNode in="SourceGraphic"/>
      </feMerge>
    </filter>

    <filter id="shadow" x="-30%" y="-30%" width="160%" height="160%">
      <feGaussianBlur in="SourceAlpha" stdDeviation="0.6" result="b"/>
      <feOffset in="b" dx="0.4" dy="0.55" result="o"/>
      <feColorMatrix in="o" type="matrix"
        values="0 0 0 0 0
                0 0 0 0 0
                0 0 0 0 0
                0 0 0 0.26 0" result="s"/>
      <feMerge>
        <feMergeNode in="s"/>
        <feMergeNode in="SourceGraphic"/>
      </feMerge>
    </filter>
  </defs>

  <g id="visual" filter="url(#shadow)">
    <!-- Energy bloom -->
    <circle cx="1.2" cy="0" r="12.6" fill="url(#burstGlow)" opacity="0.95" filter="url(#softGlow)"/>

    <!-- Burst rays (ship-like triangles) -->
    <g opacity="0.75">
      <polygon points="2,-15 4,-10 0,-11" fill="var(--slot-primary, #00f0ff)"/>
      <polygon points="12,-10 9,-6 7,-10" fill="var(--slot-primary, #00f0ff)"/>
      <polygon points="15,1 10,1 12,-2" fill="var(--slot-primary, #00f0ff)"/>
      <polygon points="12,12 8,8 12,7" fill="var(--slot-primary, #00f0ff)"/>
      <polygon points="-2,16 -1,11 3,13" fill="var(--slot-primary, #00f0ff)"/>
      <polygon points="-13,10 -9,7 -10,12" fill="var(--slot-primary, #00f0ff)"/>
      <polygon points="-16,-1 -11,-2 -13,2" fill="var(--slot-primary, #00f0ff)"/>
      <polygon points="-12,-12 -9,-7 -13,-7" fill="var(--slot-primary, #00f0ff)"/>
    </g>

    <!-- Suit halves pulled apart (reads as "burst open") -->
    <g opacity="0.92">
      <!-- Left half -->
      <path
        d="M -10.8 -6.8
           L -1.2 -6.8
           L -2.6 -1.0
           L -2.6 1.0
           L -1.2 6.8
           L -9.2 6.8
           Q -10.7 6.8 -11.6 5.2
           L -13.1 2.2
           Q -13.8 1.1 -13.8 0
           Q -13.8 -1.1 -13.1 -2.2
           L -11.6 -5.2
           Q -10.7 -6.8 -10.8 -6.8 Z"
        fill="url(#suitMetal)"
        class="slot-stroke"
        stroke-width="0.95"
        stroke-linejoin="round"
        transform="translate(-1.0,0) rotate(-8)"
      />

      <!-- Right half (with helmet stub) -->
      <path
        d="M 2.0 -6.8
           L 5.2 -6.8
           Q 7.3 -6.8 8.9 -5.2
           L 10.8 -3.3
           Q 11.9 -2.2 11.9 -0.8
           L 11.9 0.8
           Q 11.9 2.2 10.8 3.3
           L 8.9 5.2
           Q 7.3 6.8 5.2 6.8
           L 2.0 6.8
           L 0.6 1.0
           L 0.6 -1.0 Z"
        fill="url(#suitMetal)"
        class="slot-stroke"
        stroke-width="0.95"
        stroke-linejoin="round"
        transform="translate(1.4,0) rotate(10)"
      />
    </g>

    <!-- Torn seam highlights -->
    <path d="M -1.2 -6.7 L 0.6 -1.0 L 0.6 1.0 L -1.2 6.7"
      stroke="var(--slot-primary, #00f0ff)" stroke-width="0.55" opacity="0.9" stroke-linecap="round" />

    <!-- Core shard (diamond like pilot chest) -->
    <polygon points="-0.4,-2.4 2.4,0 -0.4,2.4 -3.0,0" fill="var(--slot-primary, #00f0ff)" opacity="0.88" filter="url(#softGlow)"/>

    <!-- Helmet popped off (small, upper-right) -->
    <g transform="translate(10.6,-7.8) rotate(18)" opacity="0.95">
      <circle cx="0" cy="0" r="3.2" fill="#07121a" class="slot-stroke" stroke-width="0.85"/>
      <path d="M -2.2 -1.2 Q 0 -2.2 2.2 -1.2 Q 2.6 0 2.2 1.2 Q 0 2.2 -2.2 1.2 Q -2.6 0 -2.2 -1.2 Z"
        fill="var(--slot-primary, #00f0ff)" opacity="0.35"/>
    </g>

    <!-- Small debris blocks (ship plating) -->
    <g opacity="0.65">
      <polygon points="-8,-12 -5,-10 -8,-9 -10,-11" fill="var(--slot-secondary, #ffffff)"/>
      <polygon points="6,12 9,10 10,13 7,14" fill="var(--slot-secondary, #ffffff)"/>
      <polygon points="-14,6 -12,4 -11,7 -13,8" fill="var(--slot-secondary, #ffffff)"/>
      <polygon points="14,4 16,2 16,5" fill="var(--slot-secondary, #ffffff)"/>
    </g>

    <!-- Tiny status light dying out -->
    <circle cx="18.3" cy="0" r="0.85" fill="#ff2b6f" opacity="0.5"/>
  </g>

  <path id="collider" d="M -17.2 0
       L -16.0 -5.6
       L -11.2 -8.6
       L -9.6 -7.2
       L 2.8 -7.2
       Q 5.0 -7.2 6.6 -5.6
       L 8.4 -3.8
       Q 9.6 -2.6 9.6 -0.8
       L 9.6 -3.3
       Q 12.4 -5.2 15.2 -4.0
       Q 17.8 -2.8 17.8 0
       Q 17.8 2.8 15.2 4.0
       Q 12.4 5.2 9.6 3.3
       L 9.6 0.8
       Q 9.6 2.6 8.4 3.8
       L 6.6 5.6
       Q 5.0 7.2 2.8 7.2
       L 4.8 8.4
       L 5.3 9.5
       L -8.1 9.5
       L -11.2 8.6
       L -16.0 5.6
       Z" fill="none" stroke="none"/>
</svg>
